<svg xmlns="http://www.w3.org/2000/svg" version="1.1" xmlns:xlink="http://www.w3.org/1999/xlink" xmlns:svgjs="http://svgjs.dev/svgjs" viewBox="0 0 11.713174741646048 2.995720050492344"><g transform="matrix(1,0,0,1,0.4704730977998963,0.5182850252461721)"><g><path d=" M 0.759 0.3644999999999998 Q 0.7335 0.3224999999999998 0.68925 0.2999999999999998 Q 0.645 0.27749999999999986 0.585 0.27749999999999986 Q 0.47400000000000003 0.27749999999999986 0.41025 0.3494999999999998 Q 0.34650000000000003 0.4214999999999999 0.34650000000000003 0.5429999999999998 Q 0.34650000000000003 0.6794999999999998 0.41475 0.7507499999999998 Q 0.483 0.8219999999999998 0.6135 0.8219999999999998 Q 0.768 0.8219999999999998 0.834 0.6824999999999999 L 0.5385 0.6824999999999999 L 0.5385 0.47099999999999986 L 1.0875000000000001 0.47099999999999986 L 1.0875000000000001 0.7559999999999998 Q 1.053 0.8399999999999999 0.9862500000000001 0.9134999999999999 Q 0.9195 0.9869999999999999 0.8175 1.03425 Q 0.7155 1.0815 0.585 1.0815 Q 0.426 1.0815 0.30375 1.0132499999999998 Q 0.1815 0.9449999999999998 0.11475 0.8227499999999999 Q 0.048 0.7004999999999999 0.048 0.5429999999999998 Q 0.048 0.3869999999999998 0.11475 0.2647499999999998 Q 0.1815 0.14249999999999985 0.303 0.07424999999999982 Q 0.4245 0.005999999999999783 0.5835 0.005999999999999783 Q 0.783 0.005999999999999783 0.9135 0.10199999999999987 Q 1.044 0.19799999999999984 1.0755000000000001 0.3644999999999998 L 0.759 0.3644999999999998 M 1.510528564453125 0.016499999999999737 L 1.510528564453125 1.0739999999999998 L 1.216528564453125 1.0739999999999998 L 1.216528564453125 0.016499999999999737 L 1.510528564453125 0.016499999999999737 M 1.9695036621093749 0.8489999999999999 L 2.298003662109375 0.8489999999999999 L 2.298003662109375 1.0739999999999998 L 1.6755036621093748 1.0739999999999998 L 1.6755036621093748 0.016499999999999737 L 1.9695036621093749 0.016499999999999737 L 1.9695036621093749 0.8489999999999999 M 2.7030454101562498 0.8489999999999999 L 3.03154541015625 0.8489999999999999 L 3.03154541015625 1.0739999999999998 L 2.4090454101562497 1.0739999999999998 L 2.4090454101562497 0.016499999999999737 L 2.7030454101562498 0.016499999999999737 L 2.7030454101562498 0.8489999999999999 M 3.4365871582031247 0.2519999999999998 L 3.4365871582031247 0.4244999999999999 L 3.7740871582031246 0.4244999999999999 L 3.7740871582031246 0.6479999999999999 L 3.4365871582031247 0.6479999999999999 L 3.4365871582031247 0.8384999999999998 L 3.8190871582031245 0.8384999999999998 L 3.8190871582031245 1.0739999999999998 L 3.1425871582031246 1.0739999999999998 L 3.1425871582031246 0.016499999999999737 L 3.8190871582031245 0.016499999999999737 L 3.8190871582031245 0.2519999999999998 L 3.4365871582031247 0.2519999999999998 M 4.057547607421874 0.9967499999999998 Q 3.9390476074218745 0.9089999999999998 3.9300476074218746 0.7454999999999998 L 4.243547607421874 0.7454999999999998 Q 4.248047607421874 0.8009999999999998 4.2765476074218745 0.8264999999999998 Q 4.305047607421875 0.8519999999999999 4.350047607421875 0.8519999999999999 Q 4.390547607421874 0.8519999999999999 4.416797607421874 0.8317499999999999 Q 4.4430476074218745 0.8114999999999999 4.4430476074218745 0.7754999999999999 Q 4.4430476074218745 0.7289999999999999 4.399547607421875 0.7034999999999998 Q 4.356047607421875 0.6779999999999998 4.258547607421875 0.6464999999999999 Q 4.155047607421874 0.6119999999999999 4.0912976074218745 0.5797499999999998 Q 4.027547607421875 0.5474999999999999 3.9802976074218743 0.48524999999999985 Q 3.9330476074218743 0.4229999999999998 3.9330476074218743 0.3224999999999998 Q 3.9330476074218743 0.2204999999999998 3.9840476074218745 0.14774999999999983 Q 4.035047607421874 0.07499999999999984 4.125047607421874 0.03749999999999987 Q 4.215047607421875 -2.220446049250313e-16 4.329047607421875 -2.220446049250313e-16 Q 4.5135476074218746 -2.220446049250313e-16 4.623797607421874 0.08624999999999983 Q 4.734047607421875 0.17249999999999988 4.741547607421874 0.3284999999999998 L 4.422047607421875 0.3284999999999998 Q 4.420547607421875 0.28049999999999986 4.392797607421874 0.25649999999999984 Q 4.365047607421874 0.23249999999999982 4.321547607421874 0.23249999999999982 Q 4.288547607421874 0.23249999999999982 4.267547607421874 0.2519999999999998 Q 4.246547607421874 0.27149999999999985 4.246547607421874 0.3074999999999998 Q 4.246547607421874 0.3374999999999998 4.269797607421874 0.35924999999999985 Q 4.293047607421874 0.3809999999999998 4.327547607421875 0.3967499999999998 Q 4.362047607421874 0.41249999999999987 4.429547607421874 0.4364999999999998 Q 4.530047607421874 0.47099999999999986 4.595297607421874 0.5047499999999998 Q 4.660547607421875 0.5384999999999999 4.707797607421875 0.5992499999999998 Q 4.755047607421875 0.6599999999999998 4.755047607421875 0.7529999999999999 Q 4.755047607421875 0.8474999999999998 4.707797607421875 0.9224999999999999 Q 4.660547607421875 0.9974999999999998 4.571297607421874 1.041 Q 4.482047607421874 1.0844999999999998 4.360547607421874 1.0844999999999998 Q 4.176047607421874 1.0844999999999998 4.057547607421874 0.9967499999999998 M 5.679790283203125 0.5437499999999998 Q 5.635540283203125 0.6224999999999998 5.546290283203124 0.6697499999999998 Q 5.457040283203124 0.7169999999999999 5.328040283203125 0.7169999999999999 L 5.182540283203124 0.7169999999999999 L 5.182540283203124 1.0739999999999998 L 4.888540283203124 1.0739999999999998 L 4.888540283203124 0.016499999999999737 L 5.328040283203125 0.016499999999999737 Q 5.455540283203124 0.016499999999999737 5.544790283203124 0.06149999999999989 Q 5.634040283203125 0.10649999999999982 5.679040283203125 0.18599999999999983 Q 5.7240402832031245 0.26549999999999985 5.7240402832031245 0.3689999999999999 Q 5.7240402832031245 0.46499999999999986 5.679790283203125 0.5437499999999998 M 5.424040283203125 0.3689999999999999 Q 5.424040283203125 0.25349999999999984 5.299540283203124 0.25349999999999984 L 5.182540283203124 0.25349999999999984 L 5.182540283203124 0.4829999999999999 L 5.299540283203124 0.4829999999999999 Q 5.424040283203125 0.4829999999999999 5.424040283203125 0.3689999999999999 M 6.133519775390624 0.016499999999999737 L 6.133519775390624 1.0739999999999998 L 5.839519775390624 1.0739999999999998 L 5.839519775390624 0.016499999999999737 L 6.133519775390624 0.016499999999999737 M 6.592494873046874 0.2519999999999998 L 6.592494873046874 0.4244999999999999 L 6.929994873046875 0.4244999999999999 L 6.929994873046875 0.6479999999999999 L 6.592494873046874 0.6479999999999999 L 6.592494873046874 0.8384999999999998 L 6.9749948730468745 0.8384999999999998 L 6.9749948730468745 1.0739999999999998 L 6.298494873046874 1.0739999999999998 L 6.298494873046874 0.016499999999999737 L 6.9749948730468745 0.016499999999999737 L 6.9749948730468745 0.2519999999999998 L 6.592494873046874 0.2519999999999998" fill="#231f20" fill-rule="nonzero"></path></g><g><path d=" M 5.4929095458984385 1.4326499999999998 L 5.4929095458984385 1.5353999999999997 L 5.3534095458984385 1.5353999999999997 L 5.3534095458984385 1.9591499999999997 L 5.225159545898438 1.9591499999999997 L 5.225159545898438 1.5353999999999997 L 5.085659545898438 1.5353999999999997 L 5.085659545898438 1.4326499999999998 L 5.4929095458984385 1.4326499999999998 M 5.685662109375001 1.5353999999999997 L 5.685662109375001 1.6418999999999997 L 5.857412109375001 1.6418999999999997 L 5.857412109375001 1.7408999999999997 L 5.685662109375001 1.7408999999999997 L 5.685662109375001 1.8563999999999998 L 5.879912109375001 1.8563999999999998 L 5.879912109375001 1.9591499999999997 L 5.557412109375001 1.9591499999999997 L 5.557412109375001 1.4326499999999998 L 5.879912109375001 1.4326499999999998 L 5.879912109375001 1.5353999999999997 L 5.685662109375001 1.5353999999999997 M 5.975173828125001 1.5560249999999998 Q 6.008923828125001 1.4948999999999997 6.069298828125001 1.4607749999999997 Q 6.129673828125001 1.4266499999999998 6.206173828125001 1.4266499999999998 Q 6.299923828125001 1.4266499999999998 6.366673828125001 1.4761499999999996 Q 6.433423828125001 1.5256499999999997 6.455923828125001 1.6111499999999996 L 6.314923828125001 1.6111499999999996 Q 6.299173828125001 1.5781499999999997 6.270298828125001 1.5608999999999997 Q 6.241423828125001 1.5436499999999997 6.204673828125001 1.5436499999999997 Q 6.145423828125001 1.5436499999999997 6.108673828125001 1.5848999999999998 Q 6.0719238281250005 1.6261499999999998 6.0719238281250005 1.6951499999999997 Q 6.0719238281250005 1.7641499999999997 6.108673828125001 1.8053999999999997 Q 6.145423828125001 1.8466499999999997 6.204673828125001 1.8466499999999997 Q 6.241423828125001 1.8466499999999997 6.270298828125001 1.8293999999999997 Q 6.299173828125001 1.8121499999999997 6.314923828125001 1.7791499999999998 L 6.455923828125001 1.7791499999999998 Q 6.433423828125001 1.8646499999999997 6.366673828125001 1.9137749999999998 Q 6.299923828125001 1.9628999999999996 6.206173828125001 1.9628999999999996 Q 6.129673828125001 1.9628999999999996 6.069298828125001 1.9287749999999997 Q 6.008923828125001 1.8946499999999997 5.975173828125001 1.8338999999999996 Q 5.941423828125001 1.7731499999999998 5.941423828125001 1.6951499999999997 Q 5.941423828125001 1.6171499999999996 5.975173828125001 1.5560249999999998 M 6.990691772460939 1.4326499999999998 L 6.990691772460939 1.9591499999999997 L 6.862441772460938 1.9591499999999997 L 6.862441772460938 1.7423999999999997 L 6.662941772460939 1.7423999999999997 L 6.662941772460939 1.9591499999999997 L 6.534691772460938 1.9591499999999997 L 6.534691772460938 1.4326499999999998 L 6.662941772460939 1.4326499999999998 L 6.662941772460939 1.6388999999999998 L 6.862441772460938 1.6388999999999998 L 6.862441772460938 1.4326499999999998 L 6.990691772460939 1.4326499999999998" fill="#5a5758" fill-rule="nonzero"></path></g><g clip-path="url(#SvgjsClipPath1002)"><g clip-path="url(#a8d4f8a27-7ded-4017-a5ae-4014d7f6cae4dd0466aa-3bfe-4715-9a44-cb579cbcc76a)"><path d=" M 10.194651768716426 1.3860245589898912 L 8.014033883908494 1.3860245589898912 L 8.014033883908494 0.06412338234106281 C 8.014033883908494 0.01113463806365523 8.056989435975515 -0.031820914003365196 8.10997996456596 -0.031820914003365196 L 10.098707472371999 -0.031820914003365196 C 10.151694432336367 -0.031820914003365196 10.194651768716426 0.01113463806365523 10.194651768716426 0.06412338234106281 Z" fill="#5a5758" transform="matrix(1,0,0,1,0,0)" fill-rule="nonzero"></path></g><g clip-path="url(#a8d4f8a27-7ded-4017-a5ae-4014d7f6cae4dd0466aa-3bfe-4715-9a44-cb579cbcc76a)"><path d=" M 10.194651768716426 1.3860245589898912 L 8.014033883908494 1.3860245589898912 L 8.014033883908494 0.06412338234106281 C 8.014033883908494 0.01113463806365523 8.056989435975515 -0.031820914003365196 8.10997996456596 -0.031820914003365196 L 10.098707472371999 -0.031820914003365196 C 10.151694432336367 -0.031820914003365196 10.194651768716426 0.01113463806365523 10.194651768716426 0.06412338234106281 Z" fill="none" transform="matrix(1,0,0,1,0,0)" fill-rule="nonzero" stroke-dasharray="none" stroke-miterlimit="10" stroke-linejoin="miter" stroke-linecap="butt" stroke-width="0.031982026885821885" stroke="#231f20"></path></g><g clip-path="url(#a8d4f8a27-7ded-4017-a5ae-4014d7f6cae4dd0466aa-3bfe-4715-9a44-cb579cbcc76a)"><path d=" M 8.014033883908494 1.3860245589898912 L 10.194651768716426 1.3860245589898912 L 10.194651768716426 1.5103965306492553 C 10.194651768716426 1.5633852749266628 10.151698000962442 1.6063408269936832 10.098707472371999 1.6063408269936832 L 8.109981748878997 1.6063408269936832 C 8.056989435975515 1.6063408269936832 8.014033883908494 1.5633852749266628 8.014033883908494 1.5103965306492553 Z" fill="#ffffff" transform="matrix(1,0,0,1,0,0)" fill-rule="nonzero"></path></g><g clip-path="url(#a8d4f8a27-7ded-4017-a5ae-4014d7f6cae4dd0466aa-3bfe-4715-9a44-cb579cbcc76a)"><path d=" M 8.014033883908494 1.3860245589898912 L 10.194651768716426 1.3860245589898912 L 10.194651768716426 1.5103965306492553 C 10.194651768716426 1.5633852749266628 10.151698000962442 1.6063408269936832 10.098707472371999 1.6063408269936832 L 8.109981748878997 1.6063408269936832 C 8.056989435975515 1.6063408269936832 8.014033883908494 1.5633852749266628 8.014033883908494 1.5103965306492553 Z" fill="none" transform="matrix(1,0,0,1,0,0)" fill-rule="nonzero" stroke-dasharray="none" stroke-miterlimit="10" stroke-linejoin="miter" stroke-linecap="butt" stroke-width="0.031982026885821885" stroke="#231f20"></path></g><g clip-path="url(#SvgjsClipPath1001dd0466aa-3bfe-4715-9a44-cb579cbcc76a)"><path d=" M 8.988238779945354 1.4961805238817596 L 9.220452847283818 1.4961805238817596" fill="none" transform="matrix(1,0,0,1,0,0)" fill-rule="nonzero" stroke-dasharray="none" stroke-miterlimit="10" stroke-linejoin="miter" stroke-linecap="butt" stroke-width="0.031982026885821885" stroke="#231f20"></path></g><g clip-path="url(#SvgjsClipPath1001dd0466aa-3bfe-4715-9a44-cb579cbcc76a)"><path d=" M 8.126222566147172 1.2724815831556806 L 8.194497520217642 1.2724815831556806 L 8.194497520217642 0.15556228826556792 L 8.126222566147172 0.15556228826556792 Z" fill="#d3d2d2" transform="matrix(1,0,0,1,0,0)" fill-rule="nonzero" stroke-dasharray="none" stroke-miterlimit="10" stroke-linejoin="miter" stroke-linecap="butt" stroke-width="0.031982026885821885" stroke="#231f20"></path></g><g clip-path="url(#SvgjsClipPath1001dd0466aa-3bfe-4715-9a44-cb579cbcc76a)"><path d=" M 8.126222566147172 0.15230413265892273 L 10.082459517851673 0.15230413265892273 L 10.082459517851673 0.08402739427541572 L 8.126222566147172 0.08402739427541572 Z" fill="#d3d2d2" transform="matrix(1,0,0,1,0,0)" fill-rule="nonzero" stroke-dasharray="none" stroke-miterlimit="10" stroke-linejoin="miter" stroke-linecap="butt" stroke-width="0.0319499092511452" stroke="#231f20"></path></g><g clip-path="url(#SvgjsClipPath1001dd0466aa-3bfe-4715-9a44-cb579cbcc76a)"><path d=" M 8.1944989692485 0.1673916994835757 L 8.1944989692485 0.08677108350599871" fill="none" transform="matrix(1,0,0,1,0,0)" fill-rule="nonzero" stroke-dasharray="none" stroke-miterlimit="10" stroke-linejoin="miter" stroke-linecap="butt" stroke-width="0.031982026885821885" stroke="#231f20"></path></g><g clip-path="url(#SvgjsClipPath1001dd0466aa-3bfe-4715-9a44-cb579cbcc76a)"><path d=" M 8.17990897682228 0.13771558926356017 L 8.140812893855571 0.13771558926356017 L 8.140812893855571 0.0986177219838163 L 8.17990897682228 0.0986177219838163 Z" fill="#f9b25f" transform="matrix(1,0,0,1,0,0)" fill-rule="nonzero"></path></g><g clip-path="url(#SvgjsClipPath1001dd0466aa-3bfe-4715-9a44-cb579cbcc76a)"><path d=" M 10.082459517851673 1.2724815831556806 L 8.194497520217642 1.2724815831556806 L 8.194497520217642 0.15556228826556792 L 10.082459517851673 0.15556228826556792 Z" fill="#ffffff" transform="matrix(1,0,0,1,0,0)" fill-rule="nonzero" stroke-dasharray="none" stroke-miterlimit="10" stroke-linejoin="miter" stroke-linecap="butt" stroke-width="0.031982026885821885" stroke="#231f20"></path></g><g clip-path="url(#SvgjsClipPath1001dd0466aa-3bfe-4715-9a44-cb579cbcc76a)"><path d=" M 8.1944989692485 0.3210241125709459 L 10.08246096688253 0.3210241125709459" fill="none" transform="matrix(1,0,0,1,0,0)" fill-rule="nonzero" stroke-dasharray="none" stroke-miterlimit="10" stroke-linejoin="miter" stroke-linecap="butt" stroke-width="0.031982026885821885" stroke="#231f20"></path></g><g clip-path="url(#SvgjsClipPath1001dd0466aa-3bfe-4715-9a44-cb579cbcc76a)"><path d=" M 8.53522108675612 0.15881359311008011 L 8.53522108675612 0.3210237070446473" fill="none" transform="matrix(1,0,0,1,0,0)" fill-rule="nonzero" stroke-dasharray="none" stroke-miterlimit="10" stroke-linejoin="miter" stroke-linecap="butt" stroke-width="0.031982026885821885" stroke="#231f20"></path></g><g clip-path="url(#SvgjsClipPath1001dd0466aa-3bfe-4715-9a44-cb579cbcc76a)"><path d=" M 8.597925572284437 0.239918852840513 L 10.020317474897482 0.239918852840513" fill="none" transform="matrix(1,0,0,1,0,0)" fill-rule="nonzero" stroke-dasharray="none" stroke-miterlimit="10" stroke-linejoin="miter" stroke-linecap="butt" stroke-width="0.031982026885821885" stroke="#231f20"></path></g><g clip-path="url(#SvgjsClipPath1001dd0466aa-3bfe-4715-9a44-cb579cbcc76a)"><path d=" M 8.2917532866447 0.25924693456707565 L 8.252657203677995 0.25924693456707565 L 8.252657203677995 0.22014906728733147 L 8.2917532866447 0.22014906728733147 Z M 8.38249095754543 0.25924693456707565 L 8.343394874578724 0.25924693456707565 L 8.343394874578724 0.22014906728733147 L 8.38249095754543 0.22014906728733147 Z M 8.473228628446162 0.25924693456707565 L 8.434132545479455 0.25924693456707565 L 8.434132545479455 0.22014906728733147 L 8.473228628446162 0.22014906728733147 Z" fill="#231f20" transform="matrix(1,0,0,1,0,0)" fill-rule="nonzero"></path></g><g clip-path="url(#SvgjsClipPath1001dd0466aa-3bfe-4715-9a44-cb579cbcc76a)"><path d=" M 9.976970931069157 0.789501945826895 L 8.29998253837408 0.789501945826895 L 8.29998253837408 0.5203258339146863 L 9.976970931069157 0.5203258339146863 Z" fill="#75bebc" transform="matrix(1,0,0,1,0,0)" fill-rule="nonzero"></path></g><g clip-path="url(#SvgjsClipPath1001dd0466aa-3bfe-4715-9a44-cb579cbcc76a)"><path d=" M 8.678727051960768 0.8772306710093992 L 9.976975374983262 0.8772306710093992" fill="none" transform="matrix(1,0,0,1,0,0)" fill-rule="nonzero" stroke-dasharray="none" stroke-miterlimit="10" stroke-linejoin="miter" stroke-linecap="butt" stroke-width="0.03170545836499492" stroke="#231f20"></path></g><g clip-path="url(#SvgjsClipPath1001dd0466aa-3bfe-4715-9a44-cb579cbcc76a)"><path d=" M 8.678727051960768 0.9635737947563474 L 9.976975374983262 0.9635737947563474" fill="none" transform="matrix(1,0,0,1,0,0)" fill-rule="nonzero" stroke-dasharray="none" stroke-miterlimit="10" stroke-linejoin="miter" stroke-linecap="butt" stroke-width="0.03170545836499492" stroke="#231f20"></path></g><g clip-path="url(#SvgjsClipPath1001dd0466aa-3bfe-4715-9a44-cb579cbcc76a)"><path d=" M 8.678727051960768 1.0499182567414191 L 9.976975374983262 1.0499182567414191" fill="none" transform="matrix(1,0,0,1,0,0)" fill-rule="nonzero" stroke-dasharray="none" stroke-miterlimit="10" stroke-linejoin="miter" stroke-linecap="butt" stroke-width="0.03170545836499492" stroke="#231f20"></path></g><g clip-path="url(#SvgjsClipPath1001dd0466aa-3bfe-4715-9a44-cb579cbcc76a)"><path d=" M 8.678727051960768 1.1362600422502434 L 9.976975374983262 1.1362600422502434" fill="none" transform="matrix(1,0,0,1,0,0)" fill-rule="nonzero" stroke-dasharray="none" stroke-miterlimit="10" stroke-linejoin="miter" stroke-linecap="butt" stroke-width="0.03170545836499492" stroke="#231f20"></path></g><g clip-path="url(#SvgjsClipPath1001dd0466aa-3bfe-4715-9a44-cb579cbcc76a)"><path d=" M 8.614462358310782 1.1556126478193962 L 8.299984322687118 1.1556126478193962 L 8.299984322687118 0.860994016304145 L 8.614462358310782 0.860994016304145 Z" fill="#f9b25f" transform="matrix(1,0,0,1,0,0)" fill-rule="nonzero"></path></g><g clip-path="url(#SvgjsClipPath1001dd0466aa-3bfe-4715-9a44-cb579cbcc76a)"><path d=" M 8.88567794002496 0.4533801930572241 L 8.846581857058254 0.4533801930572241 L 8.846581857058254 0.41428411009051763 L 8.88567794002496 0.41428411009051763 Z M 8.976460218751631 0.4533801930572241 L 8.937364135784925 0.4533801930572241 L 8.937364135784925 0.41428411009051763 L 8.976460218751631 0.41428411009051763 Z M 9.067242497478302 0.4533801930572241 L 9.028146414511596 0.4533801930572241 L 9.028146414511596 0.41428411009051763 L 9.067242497478302 0.41428411009051763 Z M 9.15802656051801 0.4533801930572241 L 9.118930477551304 0.4533801930572241 L 9.118930477551304 0.41428411009051763 L 9.15802656051801 0.41428411009051763 Z M 9.248808839244681 0.4533801930572241 L 9.209712756277975 0.4533801930572241 L 9.209712756277975 0.41428411009051763 L 9.248808839244681 0.41428411009051763 Z M 9.339591117971352 0.4533801930572241 L 9.300495035004644 0.4533801930572241 L 9.300495035004644 0.41428411009051763 L 9.339591117971352 0.41428411009051763 Z M 9.430373396698021 0.4533801930572241 L 9.391277313731315 0.4533801930572241 L 9.391277313731315 0.41428411009051763 L 9.430373396698021 0.41428411009051763 Z" fill="#231f20" transform="matrix(1,0,0,1,0,0)" fill-rule="nonzero"></path></g><g clip-path="url(#SvgjsClipPath1001dd0466aa-3bfe-4715-9a44-cb579cbcc76a)"><path d=" M 9.481010416391882 1.9901180123713955 L 8.727669883293926 1.9901180123713955 L 8.727669883293926 1.8977280675978534 L 9.481010416391882 1.8977280675978534 Z" fill="#ffffff" transform="matrix(1,0,0,1,0,0)" fill-rule="nonzero"></path></g><g clip-path="url(#b8d4f8a27-7ded-4017-a5ae-4014d7f6cae4dd0466aa-3bfe-4715-9a44-cb579cbcc76a)"><path d=" M 9.481010416391882 1.9901180123713955 L 8.727669883293926 1.9901180123713955 L 8.727669883293926 1.8977280675978534 L 9.481010416391882 1.8977280675978534 Z" fill="none" transform="matrix(1,0,0,1,0,0)" fill-rule="nonzero" stroke-dasharray="none" stroke-miterlimit="10" stroke-linejoin="miter" stroke-linecap="butt" stroke-width="0.031982026885821885" stroke="#231f20"></path></g><g clip-path="url(#SvgjsClipPath1001dd0466aa-3bfe-4715-9a44-cb579cbcc76a)"><path d=" M 9.287214559181336 1.6063389332796791 L 9.344917458504066 1.8977261738838491 L 8.863773879290964 1.8977261738838491 L 8.921476778613693 1.6063389332796791 Z" fill="#ffffff" transform="matrix(1,0,0,1,0,0)" fill-rule="nonzero"></path></g><g clip-path="url(#SvgjsClipPath1001dd0466aa-3bfe-4715-9a44-cb579cbcc76a)"><path d=" M 9.287214559181336 1.6063389332796791 L 9.344917458504066 1.8977261738838491 L 8.863773879290964 1.8977261738838491 L 8.921476778613693 1.6063389332796791 Z" fill="none" transform="matrix(1,0,0,1,0,0)" fill-rule="nonzero" stroke-dasharray="none" stroke-miterlimit="10" stroke-linejoin="miter" stroke-linecap="butt" stroke-width="0.031982026885821885" stroke="#231f20"></path></g><g clip-path="url(#c8d4f8a27-7ded-4017-a5ae-4014d7f6cae4dd0466aa-3bfe-4715-9a44-cb579cbcc76a)"><path d=" M 7.436455322265626 1.9909709140033651 L 10.772228546046255 1.9909709140033651" fill="none" transform="matrix(1,0,0,1,0,0)" fill-rule="nonzero" stroke-dasharray="none" stroke-miterlimit="10" stroke-linejoin="miter" stroke-linecap="butt" stroke-width="0.031982026885821885" stroke="#231f20"></path></g></g></g><defs><clipPath id="SvgjsClipPath1002"><path d=" M 7.436455322265626 -0.04781192744627627 h 3.3357732237806297 v 2.0547738548925523 h -3.3357732237806297 Z"></path></clipPath><clipPath id="a8d4f8a27-7ded-4017-a5ae-4014d7f6cae4dd0466aa-3bfe-4715-9a44-cb579cbcc76a"><path d=" M 7.436455322265626 2.0069619274462758 L 10.772228546046255 2.0069619274462758 L 10.772228546046255 -0.04781192744627627 L 7.436455322265626 -0.04781192744627627 Z"></path></clipPath><clipPath id="SvgjsClipPath1001dd0466aa-3bfe-4715-9a44-cb579cbcc76a"><path d=" M 7.436455322265626 -0.04781192744627627 L 10.772228546046255 -0.04781192744627627 L 10.772228546046255 2.0069619274462758 L 7.436455322265626 2.0069619274462758 Z"></path></clipPath><clipPath id="b8d4f8a27-7ded-4017-a5ae-4014d7f6cae4dd0466aa-3bfe-4715-9a44-cb579cbcc76a"><path d=" M 7.436455322265626 2.0069619274462758 L 10.772228546046255 2.0069619274462758 L 10.772228546046255 -0.04781192744627627 L 7.436455322265626 -0.04781192744627627 Z"></path></clipPath><clipPath id="c8d4f8a27-7ded-4017-a5ae-4014d7f6cae4dd0466aa-3bfe-4715-9a44-cb579cbcc76a"><path d=" M 7.436455322265626 2.0069619274462758 L 10.772228546046255 2.0069619274462758 L 10.772228546046255 -0.04781192744627627 L 7.436455322265626 -0.04781192744627627 Z"></path></clipPath></defs></svg>